HIERARCHY
ROOT Hips
{
	OFFSET 62.890800 8.863803 43.568401
	CHANNELS 6 Xposition Yposition Zposition Zrotation Xrotation Yrotation
	JOINT Chest
	{
		OFFSET -0.160400 1.630001 7.806301
		CHANNELS 6 Xposition Yposition Zposition Zrotation Xrotation Yrotation
		JOINT Chest2
		{
			OFFSET 0.000000 0.000000 3.197998
			CHANNELS 6 Xposition Yposition Zposition Zrotation Xrotation Yrotation
			JOINT Neck
			{
				OFFSET 0.000000 0.000001 7.440701
				CHANNELS 6 Xposition Yposition Zposition Zrotation Xrotation Yrotation
				JOINT Head
				{
					OFFSET 0.000000 0.000000 2.173901
					CHANNELS 6 Xposition Yposition Zposition Zrotation Xrotation Yrotation
					End Site
					{
						OFFSET 0.000000 0.000001 10.420303
					}
				}
			}
			JOINT LeftCollar
			{
				OFFSET 2.426399 -1.880099 4.759399
				CHANNELS 6 Xposition Yposition Zposition Zrotation Xrotation Yrotation
				JOINT LeftShoulder
				{
					OFFSET 4.420197 0.000000 0.000000
					CHANNELS 6 Xposition Yposition Zposition Zrotation Xrotation Yrotation
					JOINT LeftElbow
					{
						OFFSET 0.000000 -0.000001 -10.347099
						CHANNELS 6 Xposition Yposition Zposition Zrotation Xrotation Yrotation
						JOINT LeftWrist
						{
							OFFSET 0.000000 -0.000001 -12.496300
							CHANNELS 6 Xposition Yposition Zposition Zrotation Xrotation Yrotation
							End Site
							{
								OFFSET 0.000000 0.000000 -2.173901
							}
						}
					}
				}
			}
			JOINT RightCollar
			{
				OFFSET -2.781502 -1.903799 5.072601
				CHANNELS 6 Xposition Yposition Zposition Zrotation Xrotation Yrotation
				JOINT RightShoulder
				{
					OFFSET -4.012100 0.000000 0.000000
					CHANNELS 6 Xposition Yposition Zposition Zrotation Xrotation Yrotation
					JOINT RightElbow
					{
						OFFSET 0.000000 -0.000001 -10.346600
						CHANNELS 6 Xposition Yposition Zposition Zrotation Xrotation Yrotation
						JOINT RightWrist
						{
							OFFSET 0.000000 -0.000001 -12.562599
							CHANNELS 6 Xposition Yposition Zposition Zrotation Xrotation Yrotation
							End Site
							{
								OFFSET 0.000000 0.000000 -2.173901
							}
						}
					}
				}
			}
		}
	}
	JOINT LeftHip
	{
		OFFSET 2.047997 -0.047200 -2.693199
		CHANNELS 6 Xposition Yposition Zposition Zrotation Xrotation Yrotation
		JOINT LeftKnee
		{
			OFFSET 0.000000 -0.000001 -18.824400
			CHANNELS 6 Xposition Yposition Zposition Zrotation Xrotation Yrotation
			JOINT LeftAnkle
			{
				OFFSET 0.000000 -0.000002 -19.078199
				CHANNELS 6 Xposition Yposition Zposition Zrotation Xrotation Yrotation
				End Site
				{
					OFFSET 0.000000 -9.342100 0.000001
				}
			}
		}
	}
	JOINT RightHip
	{
		OFFSET -2.129898 -0.022300 -2.538300
		CHANNELS 6 Xposition Yposition Zposition Zrotation Xrotation Yrotation
		JOINT RightKnee
		{
			OFFSET 0.000000 -0.000001 -18.644600
			CHANNELS 6 Xposition Yposition Zposition Zrotation Xrotation Yrotation
			JOINT RightAnkle
			{
				OFFSET 0.000000 -0.000002 -18.801399
				CHANNELS 6 Xposition Yposition Zposition Zrotation Xrotation Yrotation
				End Site
				{
					OFFSET 0.000000 -8.914600 0.000001
				}
			}
		}
	}
}
MOTION
Frames: 8
Frame Time: 0.041667
63.606701 27.741104 44.169579 -451.173009 3.198182 -1.318497 -0.160395 1.629998 7.806313 1.618291 2.762596 9.308692 0.000012 -0.000004 3.198008 -1.233707 -3.395950 -0.043436 -0.000003 -0.000009 7.440701 48.616965 -1.160537 -14.904689 -0.000006 0.000006 2.173899 5.558489 1.942698 6.602118 2.426398 -1.880101 4.759387 -177.526479 178.113384 -178.789641 4.420197 -0.000001 -0.000002 -4.603216 17.225191 -89.424853 -0.000002 -0.000008 -10.347101 580.239432 -54.403659 -497.694465 0.000001 -0.000002 -12.496303 44.117954 3.373304 342.466641 -2.781505 -1.903799 5.072595 -186.729381 -180.142524 191.114143 -4.012102 -0.000002 0.000003 9.064847 -22.161018 481.134644 0.000001 0.000003 -10.346583 -414.749331 -2.968222 -0.072082 0.000002 0.000002 -12.562614 1742.734351 -8.309796 6.105681 2.048000 -0.047200 -2.693187 358.827649 -3.051156 0.569332 -0.000008 -0.000006 -18.824406 194.500756 160.213903 -168.986530 0.000007 -0.000000 -19.078197 -393.604459 7.128820 7.882955 -2.129900 -0.022294 -2.538287 -377.403633 -18.893808 -3.495716 0.000004 -0.000002 -18.644596 174.765690 136.424368 162.969420 0.000002 0.000000 -18.801397 48.957963 32.922673 -27.219479
63.626896 27.799511 44.173077 -452.004051 3.172590 -1.328375 -0.160400 1.630005 7.806302 1.537389 2.713970 9.306985 0.000007 0.000004 3.198003 -1.243217 -3.387882 -0.042127 -0.000008 -0.000011 7.440697 48.981093 -1.026825 -15.007423 -0.000002 0.000002 2.173899 5.605381 2.049128 6.586920 2.426393 -1.880108 4.759399 -177.364740 178.253621 -178.739029 4.420187 -0.000004 0.000006 -4.286339 17.473265 -89.681313 0.000002 -0.000006 -10.347102 579.910600 -54.276194 -497.978164 -0.000001 -0.000002 -12.496296 44.350570 3.446194 342.634500 -2.781506 -1.903805 5.072600 -187.409900 -180.282406 191.543312 -4.012098 -0.000001 0.000009 9.332625 -22.559650 481.263653 0.000010 0.000002 -10.346599 -415.057154 -3.041347 -0.139976 0.000004 -0.000009 -12.562606 1742.789867 -8.109702 6.355254 2.047988 -0.047196 -2.693193 358.540016 -2.811737 0.486979 0.000001 -0.000003 -18.824398 195.343738 160.596804 -168.773059 -0.000001 -0.000005 -19.078199 -393.257540 7.366570 7.901159 -2.129903 -0.022292 -2.538295 -377.007700 -18.580208 -3.398210 -0.000001 -0.000000 -18.644600 175.129329 136.763528 162.627965 -0.000003 -0.000003 -18.801403 48.961658 32.900243 -27.270423
63.648602 27.851910 44.174976 -452.702780 3.136797 -1.336595 -0.160392 1.630003 7.806309 1.396169 2.686500 9.298384 -0.000002 -0.000001 3.197999 -1.241229 -3.384313 -0.040534 -0.000005 -0.000005 7.440696 49.291563 -0.916095 -15.090145 -0.000006 0.000007 2.173898 5.638580 2.147767 6.569962 2.426402 -1.880102 4.759393 -177.210856 178.382165 -178.713498 4.420196 0.000003 0.000003 -4.082218 17.677438 -89.892905 0.000003 0.000004 -10.347101 579.615208 -54.193876 -498.204599 0.000000 0.000006 -12.496294 44.584159 3.513677 342.762662 -2.781504 -1.903803 5.072598 -187.982433 -180.396416 191.887253 -4.012101 0.000000 0.000005 9.544665 -22.893046 481.378182 0.000003 0.000001 -10.346590 -415.387899 -3.107503 -0.206675 0.000009 -0.000011 -12.562610 1742.777627 -7.912621 6.684749 2.048004 -0.047194 -2.693188 358.253066 -2.574419 0.408147 -0.000002 0.000004 -18.824400 196.103241 160.956905 -168.560504 -0.000001 -0.000001 -19.078199 -392.906714 7.570106 7.867824 -2.129890 -0.022302 -2.538289 -376.650891 -18.276782 -3.314129 0.000006 -0.000001 -18.644596 175.471958 137.173462 162.296660 -0.000004 -0.000004 -18.801401 48.923006 33.001620 -27.199297
63.672199 27.899010 44.175674 -453.301350 3.091913 -1.342708 -0.160400 1.630003 7.806310 1.220952 2.681671 9.282592 0.000013 0.000002 3.197999 -1.237132 -3.384550 -0.038801 -0.000005 0.000010 7.440708 49.558876 -0.826095 -15.152790 0.000004 0.000002 2.173915 5.665286 2.239828 6.550808 2.426405 -1.880092 4.759399 -177.063461 178.499262 -178.702501 4.420196 0.000003 -0.000007 -3.964080 17.852356 -90.062997 0.000012 -0.000000 -10.347096 579.360906 -54.133200 -498.380544 -0.000008 0.000001 -12.496305 44.824103 3.576040 342.840116 -2.781503 -1.903789 5.072602 -188.477458 -180.487366 192.169189 -4.012099 0.000001 0.000008 9.735631 -23.178568 481.476318 0.000003 0.000001 -10.346605 -415.739927 -3.128970 -0.165259 -0.000008 0.000000 -12.562597 1742.744733 -7.634024 6.992329 2.047998 -0.047194 -2.693192 357.990760 -2.351013 0.334152 -0.000001 -0.000002 -18.824409 196.794252 161.276640 -168.364573 -0.000003 -0.000003 -19.078199 -392.576679 7.731241 7.806003 -2.129897 -0.022291 -2.538295 -376.324080 -17.978835 -3.269288 0.000007 -0.000005 -18.644598 175.919363 137.582509 161.935671 -0.000006 -0.000000 -18.801397 48.714736 33.038663 -27.106150
63.697495 27.941410 44.175579 -453.827029 3.040160 -1.347436 -0.160396 1.630001 7.806303 1.018120 2.696347 9.262955 0.000002 0.000002 3.198008 -1.226355 -3.385478 -0.037185 -0.000009 -0.000015 7.440697 49.793343 -0.754570 -15.194968 0.000003 0.000005 2.173912 5.685937 2.325425 6.529082 2.426405 -1.880111 4.759395 -176.909058 178.626222 -178.705042 4.420195 0.000000 -0.000001 -3.917660 18.016026 -90.183475 -0.000001 -0.000001 -10.347103 579.144089 -54.070988 -498.510482 -0.000009 -0.000008 -12.496304 45.074932 3.634049 342.855525 -2.781501 -1.903811 5.072605 -188.916325 -180.558400 192.417890 -4.012090 0.000000 0.000002 9.919675 -23.420147 481.538937 0.000005 0.000004 -10.346586 -416.114085 -3.176849 -0.223239 -0.000000 -0.000005 -12.562594 1742.703533 -7.422477 7.419987 2.047996 -0.047196 -2.693199 357.772603 -2.150860 0.265080 0.000000 -0.000002 -18.824400 197.422520 161.543468 -168.194515 0.000006 -0.000002 -19.078199 -392.279566 7.845249 7.727105 -2.129899 -0.022299 -2.538300 -376.020383 -17.688872 -3.211759 0.000008 -0.000004 -18.644592 176.289887 137.967827 161.612685 0.000005 -0.000003 -18.801401 48.530226 33.018258 -27.096086
63.724396 27.979515 44.175179 -454.301918 2.980016 -1.352927 -0.160402 1.629997 7.806313 0.818304 2.736112 9.248068 0.000014 -0.000002 3.197998 -1.218202 -3.388496 -0.036068 -0.000011 -0.000007 7.440691 49.995001 -0.703527 -15.225192 -0.000001 0.000000 2.173904 5.699872 2.404467 6.513382 2.426402 -1.880103 4.759386 -176.764203 178.744083 -178.712323 4.420197 -0.000001 0.000001 -3.918568 18.162521 -90.266455 -0.000004 -0.000005 -10.347099 578.977651 -53.998956 -498.595340 -0.000005 -0.000002 -12.496300 45.337385 3.686300 342.805938 -2.781512 -1.903801 5.072596 -189.311233 -180.610364 192.631197 -4.012102 0.000004 0.000007 10.095949 -23.622836 481.569536 -0.000000 -0.000004 -10.346603 -416.494608 -3.222273 -0.280400 -0.000004 0.000003 -12.562590 1742.649984 -7.195547 7.872830 2.047993 -0.047198 -2.693189 357.608706 -1.976690 0.202547 0.000001 -0.000005 -18.824404 198.002102 161.750750 -168.058608 -0.000002 -0.000005 -19.078201 -392.028461 7.908038 7.649103 -2.129903 -0.022300 -2.538295 -375.736848 -17.410132 -3.165010 0.000001 -0.000007 -18.644600 176.754422 138.356765 161.250630 -0.000005 -0.000005 -18.801397 48.252155 32.889745 -27.256777
63.752499 28.013901 44.174980 -454.736728 2.908306 -1.361440 -0.160403 1.630002 7.806306 0.634293 2.805525 9.243079 0.000011 -0.000010 3.198001 -1.218163 -3.393712 -0.035478 0.000004 0.000000 7.440700 50.169263 -0.669539 -15.244391 -0.000001 0.000011 2.173905 5.704705 2.475836 6.506251 2.426406 -1.880093 4.759393 -176.633036 178.847342 -178.718211 4.420196 0.000012 -0.000002 -3.950623 18.290791 -90.322210 -0.000003 0.000000 -10.347095 578.859406 -53.908719 -498.643916 -0.000003 -0.000009 -12.496304 45.612475 3.732525 342.686983 -2.781494 -1.903798 5.072603 -189.678766 -180.644092 192.808017 -4.012101 -0.000002 0.000000 10.273674 -23.788019 481.575656 -0.000000 0.000002 -10.346595 -416.871198 -3.264993 -0.332157 0.000000 -0.000004 -12.562598 1742.602228 -6.986022 8.350855 2.047991 -0.047195 -2.693194 357.497975 -1.824206 0.147903 -0.000001 -0.000003 -18.824406 198.528123 161.900277 -167.952876 -0.000003 -0.000010 -19.078197 -391.805059 7.920314 7.554466 -2.129901 -0.022293 -2.538293 -375.478038 -17.142171 -3.125290 0.000011 -0.000006 -18.644600 177.184943 138.718574 160.926046 -0.000007 -0.000003 -18.801395 47.997075 32.692021 -27.549799
63.781498 28.044910 44.175484 -455.137578 2.830778 -1.370967 -0.160393 1.630004 7.806307 0.434167 2.987510 9.152729 -0.000000 0.000002 3.198008 -1.198079 -3.498796 0.058656 -0.000011 -0.000006 7.440698 50.319670 -0.646461 -15.255441 -0.000001 -0.000001 2.173913 5.698555 2.536461 6.507504 2.426405 -1.880101 4.759397 -176.517934 178.936490 -178.724426 4.420194 -0.000001 0.000006 -4.005645 18.398602 -90.350460 0.000005 -0.000007 -10.347098 578.779193 -53.794362 -498.664899 0.000000 -0.000004 -12.496297 45.898301 3.774477 342.507049 -2.781513 -1.903802 5.072598 -190.026490 -180.661987 192.950945 -4.012104 0.000001 0.000002 10.454739 -23.925405 481.566148 0.000003 -0.000001 -10.346590 -417.215029 -3.302207 -0.377487 0.000005 -0.000007 -12.562613 1742.552722 -6.785295 8.827652 2.047997 -0.047202 -2.693192 357.439618 -1.696662 0.097637 0.000000 -0.000006 -18.824400 198.993819 161.996637 -167.871201 -0.000002 0.000001 -19.078199 -391.587039 7.884982 7.413819 -2.129894 -0.022305 -2.538299 -375.246167 -16.891982 -3.096078 0.000005 -0.000002 -18.644604 177.571121 139.045590 160.648249 0.000005 -0.000006 -18.801403 47.783986 32.442914 -27.944198
